<?xml version="1.0" encoding="iso-8859-1"?>
<!-- Generator: Adobe Illustrator 19.0.0, SVG Export Plug-In . SVG Version: 6.00 Build 0)  -->
<svg version="1.1" id="Layer_1" xmlns="http://www.w3.org/2000/svg" xmlns:xlink="http://www.w3.org/1999/xlink" x="0px" y="0px"
	   viewBox="0 0 512 512" style="enable-background:new 0 0 512 512;" xml:space="preserve">
    <path style="fill:#e2526e;" d="M456.166,307.077c-3.177,0-6.326-1.055-8.91-3.104L319.538,202.65
	               c-6.202-4.919-7.241-13.934-2.32-20.135c4.919-6.202,13.937-7.241,20.135-2.32l104.478,82.887v-83.028L256,32.626L70.167,180.052
	               v83.028l176.924-140.359c6.199-4.922,15.217-3.881,20.135,2.32c4.92,6.202,3.881,15.217-2.32,20.135L64.743,303.972
	               c-4.308,3.417-10.19,4.069-15.142,1.677c-4.95-2.392-8.096-7.407-8.096-12.905V173.127c0-4.374,1.998-8.509,5.425-11.228
	               L247.092,3.104c5.218-4.139,12.597-4.139,17.815,0l200.164,158.795c3.428,2.719,5.425,6.854,5.425,11.228v119.617
	               c0,5.498-3.146,10.513-8.096,12.905C460.417,306.607,458.285,307.077,456.166,307.077z"/>
    <polygon style="fill:#e2526e;" points="456.162,378.05 256,219.256 55.836,378.05 55.836,497.668 256,338.873 456.162,497.668 "/>
    <path style="fill:#B3404A;" d="M456.166,512c-3.177,0-6.326-1.055-8.91-3.104L256,357.167L64.743,508.896
	               c-4.308,3.417-10.19,4.069-15.142,1.677c-4.95-2.392-8.096-7.405-8.096-12.905V378.05c0-4.374,1.998-8.509,5.425-11.228
	               l200.164-158.795c5.218-4.139,12.597-4.139,17.815,0l200.164,158.795c3.428,2.719,5.425,6.854,5.425,11.228v119.617
	               c0,5.499-3.146,10.513-8.096,12.905C460.417,511.53,458.285,512,456.166,512z M256,324.541c3.149,0,6.299,1.035,8.908,3.104
	               l176.924,140.359v-83.028L256,237.549L70.167,384.976v83.028l176.924-140.359C249.701,325.575,252.85,324.541,256,324.541z"/>
    <g>
    </g>
    <g>
</g>
<g>
</g>
<g>
</g>
<g>
</g>
<g>
</g>
<g>
</g>
<g>
</g>
<g>
</g>
<g>
</g>
<g>
</g>
<g>
</g>
<g>
</g>
<g>
</g>
<g>
</g>
</svg>
