<svg version="1.1" viewBox="0.0 0.0 479.0 134.56167979002623" fill="none" stroke="none" stroke-linecap="square" stroke-miterlimit="10" xmlns:xlink="http://www.w3.org/1999/xlink" xmlns="http://www.w3.org/2000/svg"><clipPath id="p.0"><path d="m0 0l479.0 0l0 134.56168l-479.0 0l0 -134.56168z" clip-rule="nonzero"/></clipPath><g clip-path="url(#p.0)"><path fill="#000000" fill-opacity="0.0" d="m0 0l479.0 0l0 134.56168l-479.0 0z" fill-rule="evenodd"/><path fill="#f0e7d5" d="m35.496063 77.437004l0 0c0 -2.3830795 1.9318733 -4.3149567 4.3149605 -4.3149567l0 0c1.1443977 0 2.2419243 0.45461273 3.051136 1.2638245c0.80921555 0.80921173 1.2638245 1.9067383 1.2638245 3.0511322l0 0c0 2.3830872 -1.9318733 4.3149643 -4.3149605 4.3149643l0 0c-2.3830872 0 -4.3149605 -1.9318771 -4.3149605 -4.3149643z" fill-rule="evenodd"/><path stroke="#f0e7d5" stroke-width="1.0" stroke-linejoin="round" stroke-linecap="butt" d="m35.496063 77.437004l0 0c0 -2.3830795 1.9318733 -4.3149567 4.3149605 -4.3149567l0 0c1.1443977 0 2.2419243 0.45461273 3.051136 1.2638245c0.80921555 0.80921173 1.2638245 1.9067383 1.2638245 3.0511322l0 0c0 2.3830872 -1.9318733 4.3149643 -4.3149605 4.3149643l0 0c-2.3830872 0 -4.3149605 -1.9318771 -4.3149605 -4.3149643z" fill-rule="evenodd"/><path fill="#f0e7d5" d="m109.519684 77.437004l0 0c0 -2.3830795 1.9318771 -4.3149567 4.3149643 -4.3149567l0 0c1.1443939 0 2.2419205 0.45461273 3.0511322 1.2638245c0.80921173 0.80921173 1.2638245 1.9067383 1.2638245 3.0511322l0 0c0 2.3830872 -1.9318695 4.3149643 -4.3149567 4.3149643l0 0c-2.3830872 0 -4.3149643 -1.9318771 -4.3149643 -4.3149643z" fill-rule="evenodd"/><path stroke="#f0e7d5" stroke-width="1.0" stroke-linejoin="round" stroke-linecap="butt" d="m109.519684 77.437004l0 0c0 -2.3830795 1.9318771 -4.3149567 4.3149643 -4.3149567l0 0c1.1443939 0 2.2419205 0.45461273 3.0511322 1.2638245c0.80921173 0.80921173 1.2638245 1.9067383 1.2638245 3.0511322l0 0c0 2.3830872 -1.9318695 4.3149643 -4.3149567 4.3149643l0 0c-2.3830872 0 -4.3149643 -1.9318771 -4.3149643 -4.3149643z" fill-rule="evenodd"/><path fill="#f0e7d5" d="m141.51968 77.437004l0 0c0 -2.3830795 1.9318695 -4.3149567 4.3149567 -4.3149567l0 0c1.1444092 0 2.241928 0.45461273 3.0511475 1.2638245c0.8092041 0.80921173 1.2638245 1.9067383 1.2638245 3.0511322l0 0c0 2.3830872 -1.9318848 4.3149643 -4.314972 4.3149643l0 0c-2.3830872 0 -4.3149567 -1.9318771 -4.3149567 -4.3149643z" fill-rule="evenodd"/><path stroke="#f0e7d5" stroke-width="1.0" stroke-linejoin="round" stroke-linecap="butt" d="m141.51968 77.437004l0 0c0 -2.3830795 1.9318695 -4.3149567 4.3149567 -4.3149567l0 0c1.1444092 0 2.241928 0.45461273 3.0511475 1.2638245c0.8092041 0.80921173 1.2638245 1.9067383 1.2638245 3.0511322l0 0c0 2.3830872 -1.9318848 4.3149643 -4.314972 4.3149643l0 0c-2.3830872 0 -4.3149567 -1.9318771 -4.3149567 -4.3149643z" fill-rule="evenodd"/><path fill="#f0e7d5" d="m125.519684 55.935696l0 0c0 -2.3830872 1.9318771 -4.3149605 4.3149567 -4.3149605l0 0c1.1444092 0 2.241928 0.45460892 3.0511475 1.2638206c0.8092041 0.80921555 1.2638245 1.9067421 1.2638245 3.0511398l0 0c0 2.3830872 -1.9318848 4.3149605 -4.314972 4.3149605l0 0c-2.3830795 0 -4.3149567 -1.9318733 -4.3149567 -4.3149605z" fill-rule="evenodd"/><path stroke="#f0e7d5" stroke-width="1.0" stroke-linejoin="round" stroke-linecap="butt" d="m125.519684 55.935696l0 0c0 -2.3830872 1.9318771 -4.3149605 4.3149567 -4.3149605l0 0c1.1444092 0 2.241928 0.45460892 3.0511475 1.2638206c0.8092041 0.80921555 1.2638245 1.9067421 1.2638245 3.0511398l0 0c0 2.3830872 -1.9318848 4.3149605 -4.314972 4.3149605l0 0c-2.3830795 0 -4.3149567 -1.9318733 -4.3149567 -4.3149605z" fill-rule="evenodd"/><path fill="#f0e7d5" d="m215.5433 77.437004l0 0c0 -2.3830795 1.9318695 -4.3149567 4.3149567 -4.3149567l0 0c1.1444092 0 2.241928 0.45461273 3.0511475 1.2638245c0.8092041 0.80921173 1.2638245 1.9067383 1.2638245 3.0511322l0 0c0 2.3830872 -1.9318848 4.3149643 -4.314972 4.3149643l0 0c-2.3830872 0 -4.3149567 -1.9318771 -4.3149567 -4.3149643z" fill-rule="evenodd"/><path stroke="#f0e7d5" stroke-width="1.0" stroke-linejoin="round" stroke-linecap="butt" d="m215.5433 77.437004l0 0c0 -2.3830795 1.9318695 -4.3149567 4.3149567 -4.3149567l0 0c1.1444092 0 2.241928 0.45461273 3.0511475 1.2638245c0.8092041 0.80921173 1.2638245 1.9067383 1.2638245 3.0511322l0 0c0 2.3830872 -1.9318848 4.3149643 -4.314972 4.3149643l0 0c-2.3830872 0 -4.3149567 -1.9318771 -4.3149567 -4.3149643z" fill-rule="evenodd"/><path fill="#f0e7d5" d="m247.5433 77.437004l0 0c0 -2.3830795 1.9318695 -4.3149567 4.3149567 -4.3149567l0 0c1.1444092 0 2.241928 0.45461273 3.0511475 1.2638245c0.8092041 0.80921173 1.2638092 1.9067383 1.2638092 3.0511322l0 0c0 2.3830872 -1.9318695 4.3149643 -4.3149567 4.3149643l0 0c-2.3830872 0 -4.3149567 -1.9318771 -4.3149567 -4.3149643z" fill-rule="evenodd"/><path stroke="#f0e7d5" stroke-width="1.0" stroke-linejoin="round" stroke-linecap="butt" d="m247.5433 77.437004l0 0c0 -2.3830795 1.9318695 -4.3149567 4.3149567 -4.3149567l0 0c1.1444092 0 2.241928 0.45461273 3.0511475 1.2638245c0.8092041 0.80921173 1.2638092 1.9067383 1.2638092 3.0511322l0 0c0 2.3830872 -1.9318695 4.3149643 -4.3149567 4.3149643l0 0c-2.3830872 0 -4.3149567 -1.9318771 -4.3149567 -4.3149643z" fill-rule="evenodd"/><path fill="#f0e7d5" d="m231.5433 55.935696l0 0c0 -2.3830872 1.9318695 -4.3149605 4.3149567 -4.3149605l0 0c1.1444092 0 2.241928 0.45460892 3.0511475 1.2638206c0.8092041 0.80921555 1.2638245 1.9067421 1.2638245 3.0511398l0 0c0 2.3830872 -1.9318848 4.3149605 -4.314972 4.3149605l0 0c-2.3830872 0 -4.3149567 -1.9318733 -4.3149567 -4.3149605z" fill-rule="evenodd"/><path stroke="#f0e7d5" stroke-width="1.0" stroke-linejoin="round" stroke-linecap="butt" d="m231.5433 55.935696l0 0c0 -2.3830872 1.9318695 -4.3149605 4.3149567 -4.3149605l0 0c1.1444092 0 2.241928 0.45460892 3.0511475 1.2638206c0.8092041 0.80921555 1.2638245 1.9067421 1.2638245 3.0511398l0 0c0 2.3830872 -1.9318848 4.3149605 -4.314972 4.3149605l0 0c-2.3830872 0 -4.3149567 -1.9318733 -4.3149567 -4.3149605z" fill-rule="evenodd"/><path fill="#f0e7d5" d="m279.5433 77.437004l0 0c0 -2.3830795 1.9318848 -4.3149567 4.314972 -4.3149567l0 0c1.1443787 0 2.2419128 0.45461273 3.051117 1.2638245c0.8092346 0.80921173 1.2638245 1.9067383 1.2638245 3.0511322l0 0c0 2.3830872 -1.9318542 4.3149643 -4.3149414 4.3149643l0 0c-2.3830872 0 -4.314972 -1.9318771 -4.314972 -4.3149643z" fill-rule="evenodd"/><path stroke="#f0e7d5" stroke-width="1.0" stroke-linejoin="round" stroke-linecap="butt" d="m279.5433 77.437004l0 0c0 -2.3830795 1.9318848 -4.3149567 4.314972 -4.3149567l0 0c1.1443787 0 2.2419128 0.45461273 3.051117 1.2638245c0.8092346 0.80921173 1.2638245 1.9067383 1.2638245 3.0511322l0 0c0 2.3830872 -1.9318542 4.3149643 -4.3149414 4.3149643l0 0c-2.3830872 0 -4.314972 -1.9318771 -4.314972 -4.3149643z" fill-rule="evenodd"/><path fill="#f0e7d5" d="m263.5433 55.935696l0 0c0 -2.3830872 1.9318848 -4.3149605 4.314972 -4.3149605l0 0c1.1443787 0 2.2419128 0.45460892 3.051117 1.2638206c0.8092346 0.80921555 1.2638245 1.9067421 1.2638245 3.0511398l0 0c0 2.3830872 -1.9318542 4.3149605 -4.3149414 4.3149605l0 0c-2.3830872 0 -4.314972 -1.9318733 -4.314972 -4.3149605z" fill-rule="evenodd"/><path stroke="#f0e7d5" stroke-width="1.0" stroke-linejoin="round" stroke-linecap="butt" d="m263.5433 55.935696l0 0c0 -2.3830872 1.9318848 -4.3149605 4.314972 -4.3149605l0 0c1.1443787 0 2.2419128 0.45460892 3.051117 1.2638206c0.8092346 0.80921555 1.2638245 1.9067421 1.2638245 3.0511398l0 0c0 2.3830872 -1.9318542 4.3149605 -4.3149414 4.3149605l0 0c-2.3830872 0 -4.314972 -1.9318733 -4.314972 -4.3149605z" fill-rule="evenodd"/><path fill="#f0e7d5" d="m247.5433 34.434383l0 0c0 -2.3830872 1.9318695 -4.3149605 4.3149567 -4.3149605l0 0c1.1444092 0 2.241928 0.45461082 3.0511475 1.2638226c0.8092041 0.80921364 1.2638092 1.9067402 1.2638092 3.051138l0 0c0 2.3830872 -1.9318695 4.3149605 -4.3149567 4.3149605l0 0c-2.3830872 0 -4.3149567 -1.9318733 -4.3149567 -4.3149605z" fill-rule="evenodd"/><path stroke="#f0e7d5" stroke-width="1.0" stroke-linejoin="round" stroke-linecap="butt" d="m247.5433 34.434383l0 0c0 -2.3830872 1.9318695 -4.3149605 4.3149567 -4.3149605l0 0c1.1444092 0 2.241928 0.45461082 3.0511475 1.2638226c0.8092041 0.80921364 1.2638092 1.9067402 1.2638092 3.051138l0 0c0 2.3830872 -1.9318695 4.3149605 -4.3149567 4.3149605l0 0c-2.3830872 0 -4.3149567 -1.9318733 -4.3149567 -4.3149605z" fill-rule="evenodd"/><path fill="#f0e7d5" d="m353.56693 77.437004l0 0c0 -2.3830795 1.9318848 -4.3149567 4.314972 -4.3149567l0 0c1.1443787 0 2.2419128 0.45461273 3.051117 1.2638245c0.8092346 0.80921173 1.2638245 1.9067383 1.2638245 3.0511322l0 0c0 2.3830872 -1.9318542 4.3149643 -4.3149414 4.3149643l0 0c-2.3830872 0 -4.314972 -1.9318771 -4.314972 -4.3149643z" fill-rule="evenodd"/><path stroke="#f0e7d5" stroke-width="1.0" stroke-linejoin="round" stroke-linecap="butt" d="m353.56693 77.437004l0 0c0 -2.3830795 1.9318848 -4.3149567 4.314972 -4.3149567l0 0c1.1443787 0 2.2419128 0.45461273 3.051117 1.2638245c0.8092346 0.80921173 1.2638245 1.9067383 1.2638245 3.0511322l0 0c0 2.3830872 -1.9318542 4.3149643 -4.3149414 4.3149643l0 0c-2.3830872 0 -4.314972 -1.9318771 -4.314972 -4.3149643z" fill-rule="evenodd"/><path fill="#f0e7d5" d="m385.56693 77.437004l0 0c0 -2.3830795 1.9318848 -4.3149567 4.314972 -4.3149567l0 0c1.1443787 0 2.2419128 0.45461273 3.051117 1.2638245c0.8092346 0.80921173 1.2638245 1.9067383 1.2638245 3.0511322l0 0c0 2.3830872 -1.9318542 4.3149643 -4.3149414 4.3149643l0 0c-2.3830872 0 -4.314972 -1.9318771 -4.314972 -4.3149643z" fill-rule="evenodd"/><path stroke="#f0e7d5" stroke-width="1.0" stroke-linejoin="round" stroke-linecap="butt" d="m385.56693 77.437004l0 0c0 -2.3830795 1.9318848 -4.3149567 4.314972 -4.3149567l0 0c1.1443787 0 2.2419128 0.45461273 3.051117 1.2638245c0.8092346 0.80921173 1.2638245 1.9067383 1.2638245 3.0511322l0 0c0 2.3830872 -1.9318542 4.3149643 -4.3149414 4.3149643l0 0c-2.3830872 0 -4.314972 -1.9318771 -4.314972 -4.3149643z" fill-rule="evenodd"/><path fill="#f0e7d5" d="m369.56693 55.935696l0 0c0 -2.3830872 1.9318848 -4.3149605 4.314972 -4.3149605l0 0c1.1443787 0 2.2419128 0.45460892 3.051117 1.2638206c0.8092346 0.80921555 1.2638245 1.9067421 1.2638245 3.0511398l0 0c0 2.3830872 -1.9318542 4.3149605 -4.3149414 4.3149605l0 0c-2.3830872 0 -4.314972 -1.9318733 -4.314972 -4.3149605z" fill-rule="evenodd"/><path stroke="#f0e7d5" stroke-width="1.0" stroke-linejoin="round" stroke-linecap="butt" d="m369.56693 55.935696l0 0c0 -2.3830872 1.9318848 -4.3149605 4.314972 -4.3149605l0 0c1.1443787 0 2.2419128 0.45460892 3.051117 1.2638206c0.8092346 0.80921555 1.2638245 1.9067421 1.2638245 3.0511398l0 0c0 2.3830872 -1.9318542 4.3149605 -4.3149414 4.3149605l0 0c-2.3830872 0 -4.314972 -1.9318733 -4.314972 -4.3149605z" fill-rule="evenodd"/><path fill="#f0e7d5" d="m417.56693 77.437004l0 0c0 -2.3830795 1.9318848 -4.3149567 4.314972 -4.3149567l0 0c1.1443787 0 2.2419128 0.45461273 3.051117 1.2638245c0.8092346 0.80921173 1.2638245 1.9067383 1.2638245 3.0511322l0 0c0 2.3830872 -1.9318542 4.3149643 -4.3149414 4.3149643l0 0c-2.3830872 0 -4.314972 -1.9318771 -4.314972 -4.3149643z" fill-rule="evenodd"/><path stroke="#f0e7d5" stroke-width="1.0" stroke-linejoin="round" stroke-linecap="butt" d="m417.56693 77.437004l0 0c0 -2.3830795 1.9318848 -4.3149567 4.314972 -4.3149567l0 0c1.1443787 0 2.2419128 0.45461273 3.051117 1.2638245c0.8092346 0.80921173 1.2638245 1.9067383 1.2638245 3.0511322l0 0c0 2.3830872 -1.9318542 4.3149643 -4.3149414 4.3149643l0 0c-2.3830872 0 -4.314972 -1.9318771 -4.314972 -4.3149643z" fill-rule="evenodd"/><path fill="#f0e7d5" d="m401.56693 55.935696l0 0c0 -2.3830872 1.9318848 -4.3149605 4.314972 -4.3149605l0 0c1.1443787 0 2.2419128 0.45460892 3.051117 1.2638206c0.8092346 0.80921555 1.2638245 1.9067421 1.2638245 3.0511398l0 0c0 2.3830872 -1.9318542 4.3149605 -4.3149414 4.3149605l0 0c-2.3830872 0 -4.314972 -1.9318733 -4.314972 -4.3149605z" fill-rule="evenodd"/><path stroke="#f0e7d5" stroke-width="1.0" stroke-linejoin="round" stroke-linecap="butt" d="m401.56693 55.935696l0 0c0 -2.3830872 1.9318848 -4.3149605 4.314972 -4.3149605l0 0c1.1443787 0 2.2419128 0.45460892 3.051117 1.2638206c0.8092346 0.80921555 1.2638245 1.9067421 1.2638245 3.0511398l0 0c0 2.3830872 -1.9318542 4.3149605 -4.3149414 4.3149605l0 0c-2.3830872 0 -4.314972 -1.9318733 -4.314972 -4.3149605z" fill-rule="evenodd"/><path fill="#f0e7d5" d="m385.56693 34.434383l0 0c0 -2.3830872 1.9318848 -4.3149605 4.314972 -4.3149605l0 0c1.1443787 0 2.2419128 0.45461082 3.051117 1.2638226c0.8092346 0.80921364 1.2638245 1.9067402 1.2638245 3.051138l0 0c0 2.3830872 -1.9318542 4.3149605 -4.3149414 4.3149605l0 0c-2.3830872 0 -4.314972 -1.9318733 -4.314972 -4.3149605z" fill-rule="evenodd"/><path stroke="#f0e7d5" stroke-width="1.0" stroke-linejoin="round" stroke-linecap="butt" d="m385.56693 34.434383l0 0c0 -2.3830872 1.9318848 -4.3149605 4.314972 -4.3149605l0 0c1.1443787 0 2.2419128 0.45461082 3.051117 1.2638226c0.8092346 0.80921364 1.2638245 1.9067402 1.2638245 3.051138l0 0c0 2.3830872 -1.9318542 4.3149605 -4.3149414 4.3149605l0 0c-2.3830872 0 -4.314972 -1.9318733 -4.314972 -4.3149605z" fill-rule="evenodd"/><path fill="#f0e7d5" d="m449.56693 77.437004l0 0c0 -2.3830795 1.9318848 -4.3149567 4.314972 -4.3149567l0 0c1.1443787 0 2.2419128 0.45461273 3.051117 1.2638245c0.8092346 0.80921173 1.2638245 1.9067383 1.2638245 3.0511322l0 0c0 2.3830872 -1.9318542 4.3149643 -4.3149414 4.3149643l0 0c-2.3830872 0 -4.314972 -1.9318771 -4.314972 -4.3149643z" fill-rule="evenodd"/><path stroke="#f0e7d5" stroke-width="1.0" stroke-linejoin="round" stroke-linecap="butt" d="m449.56693 77.437004l0 0c0 -2.3830795 1.9318848 -4.3149567 4.314972 -4.3149567l0 0c1.1443787 0 2.2419128 0.45461273 3.051117 1.2638245c0.8092346 0.80921173 1.2638245 1.9067383 1.2638245 3.0511322l0 0c0 2.3830872 -1.9318542 4.3149643 -4.3149414 4.3149643l0 0c-2.3830872 0 -4.314972 -1.9318771 -4.314972 -4.3149643z" fill-rule="evenodd"/><path fill="#f0e7d5" d="m433.56693 55.935696l0 0c0 -2.3830872 1.9318848 -4.3149605 4.314972 -4.3149605l0 0c1.1443787 0 2.2419128 0.45460892 3.051117 1.2638206c0.8092346 0.80921555 1.2638245 1.9067421 1.2638245 3.0511398l0 0c0 2.3830872 -1.9318542 4.3149605 -4.3149414 4.3149605l0 0c-2.3830872 0 -4.314972 -1.9318733 -4.314972 -4.3149605z" fill-rule="evenodd"/><path stroke="#f0e7d5" stroke-width="1.0" stroke-linejoin="round" stroke-linecap="butt" d="m433.56693 55.935696l0 0c0 -2.3830872 1.9318848 -4.3149605 4.314972 -4.3149605l0 0c1.1443787 0 2.2419128 0.45460892 3.051117 1.2638206c0.8092346 0.80921555 1.2638245 1.9067421 1.2638245 3.0511398l0 0c0 2.3830872 -1.9318542 4.3149605 -4.3149414 4.3149605l0 0c-2.3830872 0 -4.314972 -1.9318733 -4.314972 -4.3149605z" fill-rule="evenodd"/><path fill="#f0e7d5" d="m417.56693 34.434383l0 0c0 -2.3830872 1.9318848 -4.3149605 4.314972 -4.3149605l0 0c1.1443787 0 2.2419128 0.45461082 3.051117 1.2638226c0.8092346 0.80921364 1.2638245 1.9067402 1.2638245 3.051138l0 0c0 2.3830872 -1.9318542 4.3149605 -4.3149414 4.3149605l0 0c-2.3830872 0 -4.314972 -1.9318733 -4.314972 -4.3149605z" fill-rule="evenodd"/><path stroke="#f0e7d5" stroke-width="1.0" stroke-linejoin="round" stroke-linecap="butt" d="m417.56693 34.434383l0 0c0 -2.3830872 1.9318848 -4.3149605 4.314972 -4.3149605l0 0c1.1443787 0 2.2419128 0.45461082 3.051117 1.2638226c0.8092346 0.80921364 1.2638245 1.9067402 1.2638245 3.051138l0 0c0 2.3830872 -1.9318542 4.3149605 -4.3149414 4.3149605l0 0c-2.3830872 0 -4.314972 -1.9318733 -4.314972 -4.3149605z" fill-rule="evenodd"/><path fill="#f0e7d5" d="m401.56693 12.933071l0 0c0 -2.3830872 1.9318848 -4.3149605 4.314972 -4.3149605l0 0c1.1443787 0 2.2419128 0.45460987 3.051117 1.2638226c0.8092346 0.80921173 1.2638245 1.9067392 1.2638245 3.051138l0 0c0 2.3830872 -1.9318542 4.3149605 -4.3149414 4.3149605l0 0c-2.3830872 0 -4.314972 -1.9318733 -4.314972 -4.3149605z" fill-rule="evenodd"/><path stroke="#f0e7d5" stroke-width="1.0" stroke-linejoin="round" stroke-linecap="butt" d="m401.56693 12.933071l0 0c0 -2.3830872 1.9318848 -4.3149605 4.314972 -4.3149605l0 0c1.1443787 0 2.2419128 0.45460987 3.051117 1.2638226c0.8092346 0.80921173 1.2638245 1.9067392 1.2638245 3.051138l0 0c0 2.3830872 -1.9318542 4.3149605 -4.3149414 4.3149605l0 0c-2.3830872 0 -4.314972 -1.9318733 -4.314972 -4.3149605z" fill-rule="evenodd"/><path fill="#000000" fill-opacity="0.0" d="m20.80315 89.94357l38.015747 0l0 36.0l-38.015747 0z" fill-rule="evenodd"/><path fill="#f0e7d5" d="m36.963352 104.43107q0.375 -0.171875 0.796875 -0.375q0.421875 -0.203125 0.8125 -0.453125q0.40625 -0.25 0.765625 -0.515625q0.375 -0.28125 0.671875 -0.578125l1.390625 0l0 9.234375l-1.984375 0l0 -6.65625q-0.40625 0.265625 -0.90625 0.5q-0.484375 0.21875 -0.953125 0.375l-0.59375 -1.53125z" fill-rule="nonzero"/><path fill="#000000" fill-opacity="0.0" d="m110.826775 89.94357l38.01574 0l0 36.0l-38.01574 0z" fill-rule="evenodd"/><path fill="#f0e7d5" d="m132.65884 104.93107q0 0.515625 -0.203125 0.984375q-0.203125 0.453125 -0.515625 0.890625q-0.3125 0.4375 -0.71875 0.84375q-0.40625 0.390625 -0.78125 0.75q-0.203125 0.1875 -0.4375 0.421875q-0.234375 0.234375 -0.453125 0.46875q-0.203125 0.234375 -0.375 0.453125q-0.171875 0.203125 -0.203125 0.328125l3.96875 0l0 1.671875l-6.1562424 0q-0.03125 -0.140625 -0.03125 -0.359375q0 -0.234375 0 -0.328125q0 -0.640625 0.203125 -1.171875q0.21875 -0.546875 0.546875 -1.0q0.328125 -0.453125 0.7499924 -0.859375q0.421875 -0.40625 0.828125 -0.796875q0.328125 -0.3125 0.609375 -0.578125q0.28125 -0.28125 0.484375 -0.53125q0.21875 -0.265625 0.328125 -0.515625q0.125 -0.265625 0.125 -0.53125q0 -0.59375 -0.328125 -0.828125q-0.328125 -0.25 -0.828125 -0.25q-0.359375 0 -0.671875 0.125q-0.3125 0.109375 -0.578125 0.265625q-0.24999237 0.15625 -0.43749237 0.3125q-0.1875 0.140625 -0.28125 0.234375l-0.984375 -1.390625q0.578125 -0.546875 1.359375 -0.890625q0.7812424 -0.359375 1.6718674 -0.359375q0.8125 0 1.390625 0.1875q0.59375 0.1875 0.96875 0.53125q0.390625 0.34375 0.5625 0.828125q0.1875 0.484375 0.1875 1.09375z" fill-rule="nonzero"/><path fill="#000000" fill-opacity="0.0" d="m232.85039 89.94357l38.015762 0l0 36.0l-38.015762 0z" fill-rule="evenodd"/><path fill="#f0e7d5" d="m251.10434 111.94669q-0.359375 0 -0.765625 -0.046875q-0.390625 -0.046875 -0.765625 -0.125q-0.359375 -0.078125 -0.671875 -0.171875q-0.3125 -0.09375 -0.484375 -0.171875l0.390625 -1.65625q0.34375 0.140625 0.875 0.3125q0.546875 0.15625 1.34375 0.15625q0.921875 0 1.34375 -0.34375q0.4375 -0.34375 0.4375 -0.921875q0 -0.359375 -0.15625 -0.609375q-0.15625 -0.25 -0.421875 -0.40625q-0.265625 -0.15625 -0.640625 -0.203125q-0.359375 -0.0625 -0.765625 -0.0625l-0.78125 0l0 -1.609375l0.890625 0q0.28125 0 0.546875 -0.046875q0.28125 -0.046875 0.5 -0.171875q0.21875 -0.140625 0.34375 -0.359375q0.125 -0.21875 0.125 -0.546875q0 -0.25 -0.109375 -0.4375q-0.109375 -0.1875 -0.28125 -0.3125q-0.15625 -0.125 -0.375 -0.171875q-0.21875 -0.0625 -0.453125 -0.0625q-0.578125 0 -1.0625 0.171875q-0.484375 0.171875 -0.875 0.421875l-0.71875 -1.453125q0.21875 -0.125 0.5 -0.265625q0.296875 -0.15625 0.640625 -0.28125q0.34375 -0.125 0.734375 -0.203125q0.390625 -0.078125 0.84375 -0.078125q0.8125 0 1.40625 0.203125q0.59375 0.1875 0.96875 0.546875q0.390625 0.34375 0.578125 0.828125q0.1875 0.46875 0.1875 1.03125q0 0.546875 -0.3125 1.0625q-0.296875 0.5 -0.828125 0.765625q0.71875 0.296875 1.109375 0.875q0.40625 0.578125 0.40625 1.390625q0 0.640625 -0.21875 1.1875q-0.21875 0.53125 -0.671875 0.9375q-0.453125 0.390625 -1.15625 0.609375q-0.6875 0.21875 -1.65625 0.21875z" fill-rule="nonzero"/><path fill="#000000" fill-opacity="0.0" d="m386.87402 89.94357l38.015747 0l0 36.0l-38.015747 0z" fill-rule="evenodd"/><path fill="#f0e7d5" d="m406.3467 104.93107q-0.515625 0.6875 -1.109375 1.484375q-0.578125 0.796875 -0.984375 1.640625l2.09375 0l0 -3.125zm1.953125 -2.421875l0 5.546875l0.984375 0l0 1.625l-0.984375 0l0 2.0625l-1.953125 0l0 -2.0625l-3.984375 0l0 -1.453125q0.296875 -0.59375 0.734375 -1.328125q0.4375 -0.734375 0.96875 -1.515625q0.546875 -0.78125 1.140625 -1.53125q0.609375 -0.75 1.203125 -1.34375l1.890625 0z" fill-rule="nonzero"/></g></svg>